<svg xmlns="http://www.w3.org/2000/svg" width="20px" height="20px" enable-background="new 0 0 20 20" viewBox="0 0 20 20" fill="#FFFFFF">
  <g>
    <path d="M8.168 9.981c0 2.678 0 5.356 0 8.035 0 1.289 -0.57 1.873 -1.831 1.873 -0.587 0 -1.174 0.006 -1.76 -0.004 -0.938 -0.017 -1.566 -0.622 -1.568 -1.554 -0.007 -5.559 -0.007 -11.119 0 -16.678 0.001 -0.902 0.63 -1.517 1.529 -1.533a67.213 67.213 0 0 1 1.98 -0.003c1.045 0.013 1.642 0.628 1.645 1.72 0.007 2.715 0.002 5.43 0.002 8.145l17.658 0z" />
    <path d="M16.777 9.981c0 2.678 0 5.356 0 8.035 0 1.289 -0.57 1.873 -1.831 1.873 -0.587 0 -1.174 0.006 -1.76 -0.004 -0.938 -0.017 -1.566 -0.622 -1.568 -1.554 -0.007 -5.559 -0.007 -11.119 0 -16.678 0.001 -0.902 0.63 -1.517 1.529 -1.533a67.213 67.213 0 0 1 1.98 -0.003c1.045 0.013 1.642 0.628 1.645 1.72 0.007 2.715 0.002 5.43 0.002 8.145l9.05 0z" />
  </g>
</svg>
